<?xml version="1.0" standalone="no"?>
<!DOCTYPE svg PUBLIC "-//W3C//DTD SVG 20010904//EN"
 "http://www.w3.org/TR/2001/REC-SVG-20010904/DTD/svg10.dtd">
<svg version="1.0" xmlns="http://www.w3.org/2000/svg"
 width="2048.000000pt" height="2048.000000pt" viewBox="0 0 2048.000000 2048.000000"
 preserveAspectRatio="xMidYMid meet">
<metadata>
Created by potrace 1.14, written by Peter Selinger 2001-2017
</metadata>
<g transform="translate(0.000000,2048.000000) scale(0.100000,-0.100000)"
fill="#000000" stroke="none">
<path d="M12699 19016 c-2 -2 -32 -7 -67 -10 -34 -4 -72 -10 -85 -15 -12 -5
-26 -9 -32 -10 -57 -7 -205 -78 -285 -136 -114 -84 -182 -163 -485 -569 -77
-103 -145 -193 -150 -199 -6 -7 -92 -120 -190 -252 -99 -132 -182 -242 -185
-245 -3 -3 -30 -39 -60 -80 -30 -41 -57 -77 -60 -80 -3 -3 -39 -50 -80 -105
-41 -55 -80 -107 -87 -115 -6 -8 -27 -35 -45 -60 -19 -25 -144 -190 -278 -368
-135 -178 -255 -338 -267 -355 -17 -25 -144 -193 -190 -252 -4 -6 -28 -37 -53
-70 -25 -33 -49 -65 -55 -72 -18 -23 -30 -37 -130 -173 -55 -74 -102 -137
-105 -140 -3 -3 -73 -95 -155 -205 -82 -110 -152 -202 -155 -205 -3 -3 -23
-30 -45 -60 -22 -30 -42 -57 -45 -60 -26 -24 -363 -484 -373 -510 -20 -49 -14
-122 14 -162 29 -41 45 -55 89 -76 34 -16 287 -17 3910 -15 2131 0 3885 3
3897 6 51 13 90 43 116 92 9 17 46 136 81 265 36 129 86 312 111 405 26 94 49
177 50 185 2 8 15 53 29 100 14 47 27 96 30 110 2 14 9 37 15 53 6 15 13 38
15 50 2 12 45 171 96 352 50 182 107 389 127 460 38 139 116 417 139 502 41
142 209 192 314 92 57 -54 54 19 55 -1305 1 -1344 -3 -1255 62 -1315 59 -56 0
-53 1098 -53 1078 -1 1064 -2 1123 44 13 11 34 37 45 57 l21 38 0 2160 c1
2039 0 2162 -17 2197 -9 20 -36 51 -59 70 l-42 33 -3827 2 c-2104 2 -3828 1
-3830 -1z"/>
<path d="M7794 12994 c-44 -18 -70 -49 -255 -294 -211 -281 -202 -270 -214
-283 -6 -7 -28 -37 -50 -67 -22 -30 -45 -62 -52 -70 -14 -17 -147 -194 -178
-236 -11 -15 -24 -32 -30 -38 -5 -7 -21 -27 -35 -46 -13 -19 -28 -39 -32 -45
-4 -5 -18 -23 -31 -40 -24 -31 -500 -662 -742 -985 -77 -102 -142 -187 -145
-190 -3 -3 -16 -21 -30 -40 -13 -19 -28 -39 -33 -45 -4 -5 -42 -55 -83 -110
-41 -55 -80 -107 -87 -115 -7 -8 -53 -69 -102 -135 -49 -66 -93 -124 -97 -130
-4 -5 -18 -23 -31 -40 -17 -22 -425 -563 -489 -650 -4 -5 -18 -23 -31 -40 -13
-16 -106 -140 -208 -275 -101 -135 -186 -247 -189 -250 -3 -3 -30 -39 -60 -80
-30 -41 -57 -77 -60 -80 -3 -3 -17 -21 -30 -40 -13 -19 -27 -37 -30 -40 -14
-11 -88 -117 -104 -149 -22 -41 -23 -112 -3 -154 20 -40 63 -82 102 -98 44
-18 10710 -20 10774 -2 48 13 104 61 120 102 6 14 53 184 106 376 53 193 103
373 111 400 8 28 30 106 48 175 40 145 105 381 246 890 56 201 103 372 105
381 2 8 16 62 33 120 42 150 82 296 87 316 2 10 11 43 20 73 17 57 24 84 74
265 16 61 66 241 111 400 44 160 83 299 85 310 3 11 50 182 105 380 100 355
112 421 91 477 -18 47 -75 95 -128 106 -77 18 -8618 13 -8659 -4z"/>
<path d="M3108 6787 c-34 -18 -70 -58 -178 -199 -74 -97 -144 -189 -155 -204
-26 -36 -132 -176 -142 -189 -5 -5 -91 -120 -193 -255 -211 -281 -394 -524
-421 -560 -11 -14 -47 -61 -80 -105 -33 -44 -65 -87 -72 -95 -9 -12 -306 -407
-349 -465 -4 -5 -18 -23 -31 -40 -13 -16 -106 -140 -208 -275 -101 -135 -189
-252 -196 -260 -19 -23 -246 -325 -263 -350 -8 -12 -25 -34 -38 -48 -12 -15
-35 -45 -50 -67 -15 -22 -29 -42 -33 -45 -3 -3 -18 -23 -35 -45 -16 -22 -35
-46 -42 -53 -6 -8 -17 -23 -23 -35 -13 -22 -14 -24 -57 -77 -15 -19 -60 -80
-99 -135 -257 -365 -357 -540 -414 -725 -40 -129 -28 -334 27 -483 85 -227
253 -420 437 -502 57 -25 177 -59 247 -70 25 -4 52 -9 60 -10 15 -3 114 -14
175 -21 17 -1 100 -6 185 -11 196 -10 11532 -11 11658 0 100 8 157 18 237 43
161 50 345 186 447 329 30 43 80 129 83 145 1 3 8 21 16 40 35 79 88 253 193
635 153 557 180 653 213 770 19 66 36 127 38 135 3 17 130 478 176 640 16 58
31 114 34 125 2 11 34 126 70 255 70 247 87 285 148 317 48 25 135 22 183 -6
42 -25 63 -50 81 -96 9 -22 12 -426 12 -1611 1 -1728 -3 -1618 59 -1677 60
-57 1 -55 1367 -53 1250 1 1260 1 1295 21 19 12 48 40 65 64 l30 43 2 2531 c2
2807 7 2579 -64 2645 -20 17 -50 36 -67 41 -17 4 -3238 8 -7158 9 l-7127 0
-43 -21z"/>
</g>
</svg>
