<svg width="218" height="187" viewBox="0 0 218 187" fill="none" xmlns="http://www.w3.org/2000/svg">
<path fill-rule="evenodd" clip-rule="evenodd" d="M129.925 2.02236C128.811 2.86401 127.931 4.03118 126.171 6.36551L96.4313 45.7957C95.4374 47.1135 96.3775 49 98.0281 49H179.873C180.772 49 181.561 48.3996 181.8 47.5326L189.004 21.4578C189.624 19.2124 192.932 19.6608 192.932 21.9903V47C192.932 48.1046 193.827 49 194.932 49H215.932C217.036 49 217.932 48.1046 217.932 47V2C217.932 0.895431 217.036 0 215.932 0H194.932H138.945C136.021 0 134.559 0 133.216 0.382236C132.027 0.720785 130.911 1.27689 129.925 2.02236ZM48.2493 115C46.5987 115 45.6586 113.113 46.6525 111.796L82.1011 64.7957C82.479 64.2946 83.0702 64 83.6978 64H174.624C175.945 64 176.903 65.2588 176.552 66.5326L163.567 113.533C163.328 114.4 162.539 115 161.64 115H48.2493ZM156.981 130H33.919C33.2914 130 32.7002 130.295 32.3223 130.796L9.26575 161.365C3.04574 169.612 -0.0642637 173.736 0.00100628 177.189C0.057803 180.194 1.46304 183.014 3.82785 184.869C6.54546 187 11.7103 187 22.0398 187H131.092C135.455 187 137.637 187 139.465 186.248C141.079 185.584 142.49 184.509 143.56 183.13C144.772 181.569 145.353 179.466 146.515 175.261L146.515 175.26L153.053 151.592C153.673 149.347 156.981 149.795 156.981 152.125V185C156.981 186.105 157.876 187 158.981 187H184.981C186.086 187 186.981 186.105 186.981 185V132C186.981 130.895 186.086 130 184.981 130H159.018H156.981Z" fill="white"/>
</svg>
