<svg width="218" height="187" viewBox="0 0 218 187" fill="none" xmlns="http://www.w3.org/2000/svg">
<path fill-rule="evenodd" clip-rule="evenodd" d="M129.944 2.02236C128.831 2.86401 127.95 4.03118 126.19 6.36551L96.4504 45.7957C95.4565 47.1135 96.3966 49 98.0471 49H179.892C180.791 49 181.58 48.3996 181.819 47.5326L189.023 21.4576C189.643 19.2122 192.951 19.6607 192.951 21.9902V47C192.951 48.1046 193.846 49 194.951 49H215.951C217.055 49 217.951 48.1046 217.951 47V2C217.951 0.895431 217.055 0 215.951 0H194.951H138.964C136.04 0 134.578 0 133.235 0.382236C132.046 0.720785 130.93 1.27689 129.944 2.02236ZM48.2683 115C46.6177 115 45.6777 113.113 46.6716 111.796L82.1201 64.7957C82.498 64.2946 83.0892 64 83.7169 64H174.643C175.964 64 176.922 65.2588 176.571 66.5326L163.586 113.533C163.347 114.4 162.558 115 161.659 115H48.2683ZM157 130H33.9381C33.3104 130 32.7192 130.295 32.3413 130.796L9.2848 161.365C3.06479 169.612 -0.0452207 173.736 0.0200493 177.189C0.076846 180.194 1.48208 183.014 3.84689 184.869C6.56451 187 11.7293 187 22.0589 187H131.111C135.474 187 137.656 187 139.484 186.248C141.098 185.584 142.509 184.509 143.579 183.13C144.791 181.569 145.372 179.466 146.534 175.26L153.072 151.592C153.693 149.347 157 149.795 157 152.125V185C157 186.105 157.895 187 159 187H185C186.105 187 187 186.105 187 185V132C187 130.895 186.105 130 185 130H159.037H157Z" fill="black"/>
</svg>
